<svg width="14" height="14" viewBox="0 0 14 14" fill="none" xmlns="http://www.w3.org/2000/svg">
<path d="M11.6068 3.97467L3.46347 0.39C3.38286 0.35438 3.29598 0.335097 3.20787 0.333266C3.11976 0.331435 3.03216 0.347093 2.95014 0.379334C2.86818 0.411723 2.79346 0.460039 2.73029 0.521488C2.66713 0.582937 2.61677 0.6563 2.58214 0.737334L0.582137 5.404C0.512492 5.56649 0.51024 5.74999 0.575876 5.91414C0.641511 6.0783 0.76966 6.20966 0.932137 6.27933L5.57014 8.26667L4.74347 10.3333H1.86147V8.33333H0.528137V13.6667H1.86147V11.6667H4.74347C5.29214 11.6667 5.77814 11.3373 5.9808 10.828L6.79547 8.792L9.0748 9.76867C9.23656 9.83818 9.41925 9.84088 9.583 9.77618C9.74674 9.71148 9.87825 9.58464 9.9488 9.42333L11.9488 4.852C12.0196 4.69028 12.0233 4.5071 11.9592 4.34263C11.8951 4.17816 11.7683 4.04583 11.6068 3.97467ZM12.4815 9.91467L11.2428 9.42L12.5748 6.08667L13.8135 6.58067L12.4815 9.91467Z" fill="white"/>
</svg>
