<svg width="16" height="17" viewBox="0 0 16 17" fill="none" xmlns="http://www.w3.org/2000/svg">
<path d="M3.33331 3.43333V12.7667C3.33331 12.9435 3.40355 13.113 3.52858 13.2381C3.6536 13.3631 3.82317 13.4333 3.99998 13.4333H5.99998V12.1H4.66665V4.1H5.99998V2.76667H3.99998C3.82317 2.76667 3.6536 2.8369 3.52858 2.96193C3.40355 3.08695 3.33331 3.25652 3.33331 3.43333ZM12.828 2.78667L7.49465 1.45333C7.39639 1.42883 7.29384 1.42703 7.19479 1.44807C7.09574 1.46911 7.00278 1.51244 6.92297 1.57477C6.84316 1.6371 6.7786 1.71679 6.73418 1.8078C6.68977 1.89881 6.66667 1.99873 6.66665 2.1V14.1C6.66641 14.2014 6.68934 14.3014 6.73367 14.3926C6.77801 14.4837 6.84257 14.5635 6.92245 14.6259C7.00233 14.6883 7.0954 14.7316 7.19457 14.7525C7.29373 14.7734 7.39637 14.7714 7.49465 14.7467L12.828 13.4133C12.9723 13.3773 13.1004 13.2942 13.1919 13.177C13.2835 13.0598 13.3333 12.9154 13.3333 12.7667V3.43333C13.3333 3.28463 13.2835 3.1402 13.1919 3.02303C13.1004 2.90585 12.9723 2.82265 12.828 2.78667ZM9.99998 8.22533C9.9923 8.39699 9.91871 8.55906 9.79453 8.67782C9.67034 8.79657 9.50514 8.86284 9.33331 8.86284C9.16149 8.86284 8.99628 8.79657 8.8721 8.67782C8.74792 8.55906 8.67432 8.39699 8.66665 8.22533V7.974C8.66673 7.79719 8.73706 7.62765 8.86214 7.50269C8.98723 7.37773 9.15684 7.30758 9.33365 7.30767C9.51046 7.30775 9.67999 7.37808 9.80495 7.50316C9.92992 7.62825 10.0001 7.79786 9.99998 7.97467V8.22533Z" fill="#F97316"/>
</svg>
