<svg width="20" height="20" viewBox="0 0 20 20" fill="none" xmlns="http://www.w3.org/2000/svg">
<rect width="20" height="20" rx="10" fill="#431407"/>
<g clip-path="url(#clip0_5368_85)">
<path d="M10.5 6H12C12.2652 6 12.5196 6.10536 12.7071 6.29289C12.8946 6.48043 13 6.73478 13 7V14M5 14H6.5M6.5 14L9.879 14.8445C9.95269 14.8629 10.0296 14.8642 10.1039 14.8484C10.1782 14.8326 10.2479 14.8001 10.3078 14.7534C10.3676 14.7066 10.416 14.6469 10.4493 14.5786C10.4827 14.5104 10.5 14.4354 10.5 14.3595V6.28098C10.4999 6.12907 10.4652 5.97868 10.3985 5.84218C10.3318 5.70569 10.2349 5.58618 10.1152 5.49273C9.99541 5.39928 9.85592 5.33435 9.70732 5.30285C9.55871 5.27136 9.40488 5.27414 9.2575 5.31098L7.2575 5.81098C7.04116 5.86505 6.8491 5.98989 6.71185 6.16564C6.5746 6.3414 6.50003 6.55798 6.5 6.78098V14ZM10.5 14H15M9 10V10.005" stroke="#F97316" stroke-linecap="round" stroke-linejoin="round"/>
</g>
<defs>
<clipPath id="clip0_5368_85">
<rect width="12" height="12" fill="white" transform="translate(4 4)"/>
</clipPath>
</defs>
</svg>
