<svg width="16" height="12" viewBox="0 0 16 12" fill="none" xmlns="http://www.w3.org/2000/svg">
<path d="M4.66668 1.63334H15.3333V4.30001H14.6667V4.96667H10.6667C10.4899 4.96667 10.3203 5.03691 10.1953 5.16194C10.0702 5.28696 10 5.45653 10 5.63334V6.30001C10 6.65363 9.85953 6.99277 9.60948 7.24282C9.35944 7.49287 9.0203 7.63334 8.66668 7.63334H6.41334C6.16001 7.63334 5.92668 7.78001 5.81334 8.00668L4.18001 11.2667C4.06668 11.4933 3.84001 11.6333 3.58668 11.6333H1.33334C1.33334 11.6333 -0.666658 11.6333 2.00001 7.63334C2.00001 7.63334 4.00001 4.96667 1.33334 4.96667V1.63334H2.00001L2.33334 0.966675H4.33334L4.66668 1.63334ZM9.33334 6.30001V5.63334C9.33334 5.45653 9.2631 5.28696 9.13808 5.16194C9.01306 5.03691 8.84349 4.96667 8.66668 4.96667H8.00001C8.00001 4.96667 7.33334 5.63334 8.00001 6.30001C7.64639 6.30001 7.30725 6.15953 7.0572 5.90948C6.80715 5.65944 6.66668 5.3203 6.66668 4.96667C6.48986 4.96667 6.3203 5.03691 6.19527 5.16194C6.07025 5.28696 6.00001 5.45653 6.00001 5.63334V6.30001C6.00001 6.47682 6.07025 6.64639 6.19527 6.77141C6.3203 6.89644 6.48986 6.96667 6.66668 6.96667H8.66668C8.84349 6.96667 9.01306 6.89644 9.13808 6.77141C9.2631 6.64639 9.33334 6.47682 9.33334 6.30001Z" fill="#EF4444"/>
</svg>
