<svg width="15" height="13" viewBox="0 0 15 13" fill="none" xmlns="http://www.w3.org/2000/svg">
<path d="M7.77214 0.999999L14.1228 12C14.1813 12.1013 14.2121 12.2163 14.2121 12.3333C14.2121 12.4504 14.1813 12.5653 14.1228 12.6667C14.0643 12.768 13.9801 12.8522 13.8788 12.9107C13.7775 12.9692 13.6625 13 13.5455 13H0.84414C0.727117 13 0.612156 12.9692 0.510813 12.9107C0.409469 12.8522 0.325313 12.768 0.266802 12.6667C0.208292 12.5653 0.177489 12.4504 0.17749 12.3333C0.177491 12.2163 0.208295 12.1013 0.266807 12L6.61747 0.999999C6.67599 0.89866 6.76015 0.814509 6.86149 0.756002C6.96283 0.697496 7.07779 0.666695 7.19481 0.666695C7.31183 0.666695 7.42678 0.697496 7.52813 0.756002C7.62947 0.814509 7.71363 0.89866 7.77214 0.999999ZM6.52814 9.66667V11H7.86147V9.66667H6.52814ZM6.52814 5V8.33333H7.86147V5H6.52814Z" fill="white"/>
</svg>
