<svg width="13" height="12" viewBox="0 0 13 12" fill="none" xmlns="http://www.w3.org/2000/svg">
<path d="M5.52816 9.33333H6.86149L7.06149 8.33333C7.19482 8.27778 7.31994 8.21956 7.43682 8.15867C7.55371 8.09778 7.67305 8.02267 7.79482 7.93333L8.76149 8.23333L9.42816 7.1L8.66149 6.43333C8.68371 6.27778 8.69482 6.13333 8.69482 6C8.69482 5.86667 8.68371 5.72222 8.66149 5.56667L9.42816 4.9L8.76149 3.76667L7.79482 4.06667C7.6726 3.97778 7.55327 3.90267 7.43682 3.84133C7.32038 3.78 7.19527 3.72178 7.06149 3.66667L6.86149 2.66667H5.52816L5.32816 3.66667C5.19482 3.72222 5.06994 3.78067 4.95349 3.842C4.83705 3.90333 4.71749 3.97822 4.59482 4.06667L3.62816 3.76667L2.96149 4.9L3.72816 5.56667C3.70594 5.72222 3.69482 5.86667 3.69482 6C3.69482 6.13333 3.70594 6.27778 3.72816 6.43333L2.96149 7.1L3.62816 8.23333L4.59482 7.93333C4.71705 8.02222 4.8366 8.09733 4.95349 8.15867C5.07038 8.22 5.19527 8.27822 5.32816 8.33333L5.52816 9.33333ZM6.19482 7.33333C5.82816 7.33333 5.51438 7.20289 5.25349 6.942C4.9926 6.68111 4.86194 6.36711 4.86149 6C4.86105 5.63289 4.99171 5.31911 5.25349 5.05867C5.51527 4.79822 5.82905 4.66756 6.19482 4.66667C6.5606 4.66578 6.8746 4.79644 7.13682 5.05867C7.39905 5.32089 7.52949 5.63467 7.52816 6C7.52682 6.36533 7.39638 6.67933 7.13682 6.942C6.87727 7.20467 6.56327 7.33511 6.19482 7.33333ZM1.52816 12C1.16149 12 0.847713 11.8696 0.586824 11.6087C0.325935 11.3478 0.195269 11.0338 0.194824 10.6667V1.33333C0.194824 0.966667 0.325491 0.652889 0.586824 0.392C0.848158 0.131111 1.16194 0.000444444 1.52816 0H10.8615C11.2282 0 11.5422 0.130667 11.8035 0.392C12.0648 0.653333 12.1953 0.967111 12.1948 1.33333V10.6667C12.1948 11.0333 12.0644 11.3473 11.8035 11.6087C11.5426 11.87 11.2286 12.0004 10.8615 12H1.52816Z" fill="white"/>
</svg>
