<svg width="14" height="11" viewBox="0 0 14 11" fill="none" xmlns="http://www.w3.org/2000/svg">
<path d="M9.86147 9.33333V10.6667H0.528137V9.33333C0.528137 9.33333 0.528137 6.66667 5.1948 6.66667C9.86147 6.66667 9.86147 9.33333 9.86147 9.33333ZM7.52814 3C7.52814 2.53851 7.39129 2.08738 7.1349 1.70367C6.87851 1.31995 6.51409 1.02088 6.08773 0.84428C5.66137 0.667676 5.19222 0.621468 4.73959 0.7115C4.28697 0.801532 3.87121 1.02376 3.54489 1.35008C3.21857 1.67641 2.99634 2.09217 2.90631 2.54479C2.81627 2.99741 2.86248 3.46657 3.03909 3.89293C3.21569 4.31929 3.51476 4.68371 3.89847 4.94009C4.28219 5.19649 4.73331 5.33333 5.1948 5.33333C5.81364 5.33333 6.40714 5.0875 6.84472 4.64991C7.2823 4.21233 7.52814 3.61884 7.52814 3ZM9.82147 6.66667C10.2313 6.98383 10.5667 7.38695 10.8039 7.84767C11.0412 8.30839 11.1746 8.8155 11.1948 9.33333V10.6667H13.8615V9.33333C13.8615 9.33333 13.8615 6.91333 9.82147 6.66667ZM9.1948 0.666666C8.73599 0.664532 8.28733 0.801687 7.90814 1.06C8.3131 1.62582 8.53084 2.30419 8.53084 3C8.53084 3.69581 8.3131 4.37417 7.90814 4.94C8.28733 5.19831 8.73599 5.33547 9.1948 5.33333C9.81364 5.33333 10.4071 5.0875 10.8447 4.64991C11.2823 4.21233 11.5281 3.61884 11.5281 3C11.5281 2.38116 11.2823 1.78767 10.8447 1.35008C10.4071 0.912499 9.81364 0.666666 9.1948 0.666666Z" fill="white"/>
</svg>
