<svg width="12" height="12" viewBox="0 0 12 12" fill="none" xmlns="http://www.w3.org/2000/svg">
<path d="M5.15 7.5H3.5C2.96957 7.5 2.46086 7.71071 2.08579 8.08579C1.71071 8.46086 1.5 8.96957 1.5 9.5V10.5M10.5 10.5L9.55005 9.55005M7 3.5C7 4.60457 6.10457 5.5 5 5.5C3.89543 5.5 3 4.60457 3 3.5C3 2.39543 3.89543 1.5 5 1.5C6.10457 1.5 7 2.39543 7 3.5ZM10 8.5C10 9.32843 9.32843 10 8.5 10C7.67157 10 7 9.32843 7 8.5C7 7.67157 7.67157 7 8.5 7C9.32843 7 10 7.67157 10 8.5Z" stroke="#3B82F6" stroke-linecap="round" stroke-linejoin="round"/>
</svg>
